<svg width="32" height="32" viewBox="0 0 32 32" fill="transparent" xmlns="http://www.w3.org/2000/svg">
<rect width="32" height="32" rx="6" fill="#FFF6EE"/>
<g opacity="0.94">
<path d="M7.36019 5.88825L7.36021 5.88822C7.59632 5.33151 8.11192 4.94417 8.70965 4.87202L20.4129 3.45945C21.0122 3.38711 21.6036 3.64081 21.9654 4.12538L21.9654 4.12542L29.0455 13.5972C29.4074 14.0819 29.4848 14.7231 29.2486 15.28L24.6255 26.1644L24.6255 26.1644C24.3894 26.7211 23.8738 27.1085 23.276 27.1806L11.5728 28.5932C10.9735 28.6655 10.3821 28.4118 10.0203 27.9273L10.0203 27.9272L2.94018 18.4554C2.57829 17.9707 2.5009 17.3295 2.73707 16.7726L7.36019 5.88825Z" stroke="#F8AA32" stroke-width="0.15939"/>
<path d="M7.80581 6.07753L7.80593 6.07725C7.97441 5.68 8.34224 5.40403 8.76766 5.35268L20.4709 3.94011C20.8977 3.8886 21.3191 4.06905 21.5774 4.41504L21.5776 4.41528L28.6576 13.8869C28.9165 14.2336 28.9719 14.6926 28.8029 15.091L24.1799 25.9751L24.1798 25.9754C24.0113 26.3727 23.6435 26.6486 23.218 26.7L11.5148 28.1125C11.088 28.1641 10.6666 27.9836 10.4082 27.6376L10.4081 27.6374L3.32812 18.1658C3.06922 17.819 3.01383 17.3601 3.18279 16.9617L7.80581 6.07753Z" fill="#F8AA32" stroke="#F8AA32" stroke-width="1.12768"/>
<path d="M11.6872 12.6046C11.7382 13.0268 11.4386 13.4098 11.0187 13.4605C10.5989 13.5112 10.2168 13.2105 10.1658 12.7882C10.1148 12.3659 10.4144 11.9829 10.8343 11.9323C11.2541 11.8816 11.6362 12.1823 11.6872 12.6046Z" fill="#111111" stroke="#111111" stroke-width="0.136835"/>
<path d="M21.2352 11.4522C21.2861 11.8746 20.9866 12.2575 20.5667 12.3082C20.1468 12.3588 19.7647 12.0582 19.7138 11.6359C19.6628 11.2135 19.9623 10.8306 20.3822 10.7799C20.8022 10.7292 21.1842 11.0299 21.2352 11.4522Z" fill="#111111" stroke="#111111" stroke-width="0.136835"/>
<path d="M22.9934 17.2883L23.0883 18.0738C22.1443 18.1587 21.5042 17.6042 21.091 16.8904L21.0218 16.771L20.9686 16.8983C20.3167 18.4578 18.6608 19.7158 16.6463 19.9589C14.6318 20.2021 12.7243 19.3756 11.7199 18.0146L11.638 17.9036L11.5992 18.0361C11.3676 18.8276 10.8778 19.5186 9.94083 19.6607L9.84602 18.8752C10.1805 18.8166 10.4204 18.6337 10.5895 18.3919C10.7682 18.1361 10.8676 17.815 10.9218 17.5045C11.0096 17.0017 10.9814 16.5121 10.9665 16.3362L11.7486 16.2418C11.7591 16.3437 11.7668 16.4538 11.7705 16.5691L11.7707 16.5773L11.7729 16.5852C12.2528 18.3204 14.3402 19.5424 16.5636 19.274C18.7864 19.0057 20.5328 17.3487 20.5776 15.5264L20.5778 15.5184L20.5761 15.5106C20.552 15.3963 20.5331 15.2861 20.519 15.1832L21.1419 15.108L21.3012 15.0888C21.3295 15.2643 21.4202 15.7455 21.6255 16.2119C21.7526 16.5007 21.9258 16.789 22.1598 16.995C22.381 17.1898 22.6565 17.3106 22.9934 17.2883Z" fill="#111111" stroke="#111111" stroke-width="0.136835"/>
</g>
</svg>
